<svg width="215" height="59" viewBox="0 0 215 59" fill="none" xmlns="http://www.w3.org/2000/svg">
<path d="M5 46.3776C6.35646 56.7018 21.805 58.7785 27.8337 40.8764C31.1436 31.0478 32.732 16.0808 26.9294 11.4865C21.8031 7.42761 16.6806 12.1933 16.6806 15.4447C16.6806 18.6961 18.4159 21.0389 23.0861 21.9452C29.6423 23.2174 45.543 15.0118 53.9832 10.2054C59.3337 7.1585 32.2045 53.6815 50.4414 53.6815C65.0308 53.6815 68.226 24.0829 68.226 9.82861V20.4542M68.1507 54.2903L68.226 20.4542M68.226 20.4542C69.8086 12.6986 85.0311 3.04632 94.4509 17.0631C100.123 25.5032 93.622 45.3226 99.1232 51.276C104.624 57.2293 117.36 53.6815 117.887 46.3305" stroke="#D30000" stroke-width="8.13875" stroke-miterlimit="16" stroke-linecap="round" stroke-linejoin="round"/>
</svg>
