<svg width="45" height="46" viewBox="0 0 45 46" fill="none" xmlns="http://www.w3.org/2000/svg">
<path d="M39.3819 15.1483V30.1301C39.3819 32.6135 38.3954 34.9952 36.6394 36.7512C34.8834 38.5072 32.5017 39.4938 30.0183 39.4938H15.0365C12.5531 39.4938 10.1714 38.5072 8.4154 36.7512C6.65937 34.9952 5.67285 32.6135 5.67285 30.1301V15.1483C5.67285 12.6649 6.65937 10.2832 8.4154 8.52721C10.1714 6.77119 12.5531 5.78467 15.0365 5.78467H30.0183C32.5017 5.78467 34.8834 6.77119 36.6394 8.52721C38.3954 10.2832 39.3819 12.6649 39.3819 15.1483Z" stroke="#FDD3CF" stroke-width="2.80909" stroke-linecap="round" stroke-linejoin="round"/>
<path d="M18.7818 22.6392C17.6706 22.6392 16.5844 22.9687 15.6605 23.586C14.7366 24.2034 14.0165 25.0808 13.5912 26.1074C13.166 27.134 13.0547 28.2636 13.2715 29.3534C13.4883 30.4433 14.0234 31.4443 14.8091 32.23C15.5948 33.0157 16.5959 33.5508 17.6857 33.7676C18.7755 33.9844 19.9052 33.8731 20.9317 33.4479C21.9583 33.0227 22.8358 32.3026 23.4531 31.3787C24.0704 30.4548 24.3999 29.3685 24.3999 28.2574V11.4028C25.0236 13.2756 27.3963 17.021 31.8908 17.021" stroke="#FDD3CF" stroke-width="2.80909" stroke-linecap="round" stroke-linejoin="round"/>
</svg>
