<svg width="45" height="46" viewBox="0 0 45 46" fill="none" xmlns="http://www.w3.org/2000/svg">
<path d="M13.1094 17.0215L22.473 23.576L31.8366 17.0215" stroke="#FDD3CF" stroke-width="2.80909" stroke-linecap="round" stroke-linejoin="round"/>
<path d="M3.74561 32.003V13.2757C3.74561 12.2824 4.14021 11.3297 4.84262 10.6273C5.54503 9.92488 6.4977 9.53027 7.49106 9.53027H37.4547C38.4481 9.53027 39.4007 9.92488 40.1031 10.6273C40.8055 11.3297 41.2001 12.2824 41.2001 13.2757V32.003C41.2001 32.9964 40.8055 33.949 40.1031 34.6514C39.4007 35.3538 38.4481 35.7485 37.4547 35.7485H7.49106C6.4977 35.7485 5.54503 35.3538 4.84262 34.6514C4.14021 33.949 3.74561 32.9964 3.74561 32.003Z" stroke="#FDD3CF" stroke-width="2.80909"/>
</svg>
