<svg width="45" height="46" viewBox="0 0 45 46" fill="none" xmlns="http://www.w3.org/2000/svg">
<path d="M22.4728 30.1303C24.4596 30.1303 26.3649 29.341 27.7697 27.9362C29.1745 26.5314 29.9638 24.6261 29.9638 22.6393C29.9638 20.6526 29.1745 18.7473 27.7697 17.3425C26.3649 15.9377 24.4596 15.1484 22.4728 15.1484C20.4861 15.1484 18.5808 15.9377 17.176 17.3425C15.7712 18.7473 14.9819 20.6526 14.9819 22.6393C14.9819 24.6261 15.7712 26.5314 17.176 27.9362C18.5808 29.341 20.4861 30.1303 22.4728 30.1303Z" stroke="#FDD3CF" stroke-width="2.80909" stroke-linecap="round" stroke-linejoin="round"/>
<path d="M5.61816 30.1301V15.1483C5.61816 12.6649 6.60469 10.2832 8.36071 8.52721C10.1167 6.77119 12.4984 5.78467 14.9818 5.78467H29.9636C32.447 5.78467 34.8287 6.77119 36.5847 8.52721C38.3407 10.2832 39.3273 12.6649 39.3273 15.1483V30.1301C39.3273 32.6135 38.3407 34.9952 36.5847 36.7512C34.8287 38.5072 32.447 39.4938 29.9636 39.4938H14.9818C12.4984 39.4938 10.1167 38.5072 8.36071 36.7512C6.60469 34.9952 5.61816 32.6135 5.61816 30.1301Z" stroke="#FDD3CF" stroke-width="2.80909"/>
<path d="M32.7729 12.358L32.7917 12.3374" stroke="#FDD3CF" stroke-width="2.80909" stroke-linecap="round" stroke-linejoin="round"/>
</svg>
