<svg width="61" height="62" viewBox="0 0 61 62" fill="none" xmlns="http://www.w3.org/2000/svg">
<g clip-path="url(#clip0_330_87)">
<path d="M57.4751 8.12143L48.6984 52.3446C48.5282 53.202 48.119 53.9938 47.5181 54.6287C46.9171 55.2635 46.1489 55.7155 45.3021 55.9325L32.7274 59.1619C31.215 59.5502 29.629 59.5502 28.1166 59.1619L15.5388 55.9325C14.6935 55.7147 13.9269 55.2627 13.3272 54.6286C12.7274 53.9944 12.3189 53.2037 12.1487 52.3476L3.36895 8.12143C3.23557 7.44936 3.25284 6.75607 3.4195 6.09147C3.58617 5.42687 3.8981 4.80748 4.33283 4.27787C4.76757 3.74827 5.3143 3.32163 5.93368 3.02865C6.55307 2.73567 7.2297 2.58364 7.91488 2.5835H52.9291C53.6143 2.58364 54.291 2.73567 54.9103 3.02865C55.5297 3.32163 56.0765 3.74827 56.5112 4.27787C56.9459 4.80748 57.2578 5.42687 57.4245 6.09147C57.5912 6.75607 57.6084 7.44936 57.4751 8.12143Z" stroke="#D30000" stroke-width="3.83371" stroke-linecap="round" stroke-linejoin="round"/>
<path d="M45.8744 14.5771H17.2329C16.9583 14.5768 16.687 14.6375 16.4387 14.7548C16.1904 14.8721 15.9713 15.043 15.7971 15.2554C15.6229 15.4677 15.4981 15.716 15.4316 15.9825C15.3651 16.2489 15.3587 16.5268 15.4127 16.796L18.0673 30.0599H42.7779L40.0243 43.8367C39.9201 44.3577 39.6833 44.8429 39.3369 45.2457C38.9904 45.6484 38.546 45.955 38.0465 46.136L31.4764 48.5155C30.7965 48.7618 30.0518 48.7618 29.3719 48.5155L22.7986 46.136C22.2992 45.955 21.8547 45.6484 21.5083 45.2457C21.1618 44.8429 20.9251 44.3577 20.8208 43.8367L20.1286 40.3786" stroke="#D30000" stroke-width="3.83371" stroke-linecap="round" stroke-linejoin="round"/>
</g>
<defs>
<clipPath id="clip0_330_87">
<rect width="59.8275" height="61.8556" fill="white" transform="translate(0.532227)"/>
</clipPath>
</defs>
</svg>
