<svg width="45" height="46" viewBox="0 0 45 46" fill="none" xmlns="http://www.w3.org/2000/svg">
<path d="M13.1638 32.0028V18.8938M39.3819 15.1483V30.1301C39.3819 32.6135 38.3954 34.9952 36.6394 36.7512C34.8834 38.5072 32.5017 39.4938 30.0183 39.4938H15.0365C12.5531 39.4938 10.1714 38.5072 8.4154 36.7512C6.65937 34.9952 5.67285 32.6135 5.67285 30.1301V15.1483C5.67285 12.6649 6.65937 10.2832 8.4154 8.52721C10.1714 6.77119 12.5531 5.78467 15.0365 5.78467H30.0183C32.5017 5.78467 34.8834 6.77119 36.6394 8.52721C38.3954 10.2832 39.3819 12.6649 39.3819 15.1483Z" stroke="#FDD3CF" stroke-width="2.80909" stroke-linecap="round" stroke-linejoin="round"/>
<path d="M20.6545 32.0026V25.9162M20.6545 25.9162V18.8935M20.6545 25.9162C20.6545 18.8935 31.8908 18.8935 31.8908 25.9162V32.0026M13.1636 13.294L13.1823 13.2734" stroke="#FDD3CF" stroke-width="2.80909" stroke-linecap="round" stroke-linejoin="round"/>
</svg>
