<svg width="63" height="52" viewBox="0 0 63 52" fill="none" xmlns="http://www.w3.org/2000/svg">
<path d="M33.956 26.2791C37.2997 26.2791 40.009 28.8369 40.009 31.9948C40.009 35.1527 37.2997 37.7105 33.956 37.7105H27.4344C25.2796 37.7105 24.2022 37.7105 23.5306 37.0418C22.8618 36.3673 22.8618 35.2928 22.8618 33.1379V26.2791M33.956 26.2791C37.2997 26.2791 40.009 23.7213 40.009 20.5634C40.009 17.4054 37.2997 14.8477 33.956 14.8477H27.4344C25.2796 14.8477 24.2022 14.8477 23.5306 15.5164C22.8618 16.1908 22.8618 17.2654 22.8618 19.4202V26.2791M33.956 26.2791H22.8618" stroke="#D30000" stroke-width="3.83371" stroke-linecap="round" stroke-linejoin="round"/>
<path d="M60.0146 26.2789C58.4987 26.2789 57.0448 25.6767 55.9729 24.6048C54.901 23.5329 54.2988 22.0791 54.2988 20.5632V14.8474C54.2988 5.38794 52.3269 3.41602 42.8674 3.41602H20.0046C10.5451 3.41602 8.57314 5.38794 8.57314 14.8474V20.5632C8.57314 22.0791 7.97095 23.5329 6.89904 24.6048C5.82714 25.6767 4.37332 26.2789 2.85742 26.2789M2.85742 26.2789C4.37332 26.2789 5.82714 26.8811 6.89904 27.953C7.97095 29.0249 8.57314 30.4787 8.57314 31.9946V37.7103C8.57314 47.1698 10.5451 49.1417 20.0046 49.1417H42.8674C52.3269 49.1417 54.2988 47.1698 54.2988 37.7103V31.9946C54.2988 30.4787 54.901 29.0249 55.9729 27.953C57.0448 26.8811 58.4987 26.2789 60.0146 26.2789" stroke="#D30000" stroke-width="3.83371" stroke-linecap="round" stroke-linejoin="round"/>
</svg>
