<svg width="45" height="46" viewBox="0 0 45 46" fill="none" xmlns="http://www.w3.org/2000/svg">
<path d="M39.3273 15.1483V30.1301C39.3273 32.6135 38.3407 34.9952 36.5847 36.7512C34.8287 38.5072 32.447 39.4938 29.9636 39.4938H14.9818C12.4984 39.4938 10.1167 38.5072 8.36071 36.7512C6.60469 34.9952 5.61816 32.6135 5.61816 30.1301V15.1483C5.61816 12.6649 6.60469 10.2832 8.36071 8.52721C10.1167 6.77119 12.4984 5.78467 14.9818 5.78467H29.9636C32.447 5.78467 34.8287 6.77119 36.5847 8.52721C38.3407 10.2832 39.3273 12.6649 39.3273 15.1483Z" stroke="#FDD3CF" stroke-width="2.80909" stroke-linecap="round" stroke-linejoin="round"/>
<path d="M17.0399 22.313C21.7873 22.313 21.7873 30.1298 17.0399 30.1298H11.2363V22.313M17.0399 22.313H11.2363M17.0399 22.313C21.7873 22.313 21.7873 15.1479 17.0399 15.1479H11.2363V22.313M24.3454 25.4479C24.3454 24.2063 24.8387 23.0154 25.7167 22.1374C26.5947 21.2594 27.7855 20.7661 29.0272 20.7661C30.2689 20.7661 31.4598 21.2594 32.3378 22.1374C33.2158 23.0154 33.7091 24.2063 33.7091 25.4479H24.3454ZM24.3454 25.4479C24.3454 26.6896 24.8387 27.8805 25.7167 28.7585C26.5947 29.6365 27.7855 30.1298 29.0272 30.1298C30.7651 30.1298 31.8176 29.5267 32.4225 28.9687M31.8363 16.0843H26.2181" stroke="#FDD3CF" stroke-width="2.80909" stroke-linecap="round" stroke-linejoin="round"/>
</svg>
