<svg width="61" height="64" viewBox="0 0 61 64" fill="none" xmlns="http://www.w3.org/2000/svg">
<path d="M57.6425 9.00193L48.7875 53.6199C48.6158 54.485 48.203 55.2839 47.5967 55.9244C46.9903 56.5649 46.2153 57.021 45.3609 57.2399L32.6739 60.4981C31.148 60.8899 29.5479 60.8899 28.0219 60.4981L15.3319 57.2399C14.479 57.0202 13.7056 56.5642 13.1005 55.9243C12.4954 55.2845 12.0832 54.4868 11.9115 53.623L3.05334 9.00193C2.91877 8.32386 2.93618 7.62438 3.10434 6.95385C3.2725 6.28331 3.58721 5.65839 4.02582 5.12406C4.46444 4.58972 5.01605 4.15927 5.64097 3.86368C6.26588 3.56808 6.94856 3.41469 7.63985 3.41455H53.056C53.7473 3.41469 54.43 3.56808 55.0549 3.86368C55.6798 4.15927 56.2314 4.58972 56.6701 5.12406C57.1087 5.65839 57.4234 6.28331 57.5915 6.95385C57.7597 7.62438 57.7771 8.32386 57.6425 9.00193Z" stroke="#D30000" stroke-width="3.83371" stroke-linecap="round" stroke-linejoin="round"/>
<path d="M42.8137 31.1366L40.0356 45.0365C39.9304 45.562 39.6915 46.0516 39.342 46.458C38.9924 46.8643 38.544 47.1737 38.0401 47.3562L31.4113 49.757C30.7253 50.0055 29.974 50.0055 29.288 49.757L22.5968 47.3344C22.1033 47.1476 21.6659 46.8375 21.3264 46.4335C20.9869 46.0296 20.7566 45.5454 20.6575 45.0271L19.9653 41.5537M42.8137 31.1366L45.492 17.7543C45.5465 17.4827 45.54 17.2023 45.4729 16.9335C45.4058 16.6647 45.2799 16.4141 45.1041 16.1999C44.9284 15.9857 44.7073 15.8132 44.4568 15.6948C44.2063 15.5765 43.9326 15.5153 43.6555 15.5156H14.7583M42.8137 31.1366H17.8825" stroke="#D30000" stroke-width="3.83371" stroke-linecap="round" stroke-linejoin="round"/>
</svg>
