<svg width="64" height="64" viewBox="0 0 64 64" fill="none" xmlns="http://www.w3.org/2000/svg">
<path d="M53.6392 3.21631H10.3004C6.47076 3.21631 3.36621 6.32086 3.36621 10.1505V53.4893C3.36621 57.319 6.47076 60.4235 10.3004 60.4235H53.6392C57.4689 60.4235 60.5734 57.319 60.5734 53.4893V10.1505C60.5734 6.32086 57.4689 3.21631 53.6392 3.21631Z" stroke="#D30000" stroke-width="3.83371" stroke-linecap="round" stroke-linejoin="round"/>
<path d="M30.2361 29.2197V46.5552C30.2361 47.4748 29.8708 48.3567 29.2206 49.0069C28.5704 49.6571 27.6885 50.0224 26.769 50.0224H21.5684M50.172 29.2197H43.2378C42.3182 29.2197 41.4364 29.585 40.7861 30.2352C40.1359 30.8854 39.7707 31.7673 39.7707 32.6868V36.1539C39.7707 37.0735 40.1359 37.9553 40.7861 38.6055C41.4364 39.2558 42.3182 39.621 43.2378 39.621H46.7049C47.6244 39.621 48.5063 39.9863 49.1565 40.6365C49.8067 41.2867 50.172 42.1686 50.172 43.0881V46.5552C50.172 47.4748 49.8067 48.3567 49.1565 49.0069C48.5063 49.6571 47.6244 50.0224 46.7049 50.0224H39.7707" stroke="#D30000" stroke-width="3.83371" stroke-linecap="round" stroke-linejoin="round"/>
</svg>
