<svg width="122" height="54" viewBox="0 0 122 54" fill="none" xmlns="http://www.w3.org/2000/svg">
<path d="M5 41.3776C6.35646 51.7018 21.805 53.7785 27.8337 35.8764C31.1436 26.0478 32.732 11.0808 26.9294 6.48648C21.8031 2.42761 16.6806 7.1933 16.6806 10.4447C16.6806 13.6961 18.4159 16.0389 23.0861 16.9452C29.6423 18.2174 45.543 10.0118 53.9832 5.2054C59.3337 2.1585 32.2045 48.6815 50.4414 48.6815C65.0308 48.6815 68.226 19.0829 68.226 4.82861V15.4542M68.1507 49.2903L68.226 15.4542M68.226 15.4542C69.8086 7.69859 85.0311 -1.95368 94.4509 12.0631C100.123 20.5032 93.622 40.3226 99.1232 46.276C104.624 52.2293 117.36 48.6815 117.887 41.3305" stroke="#D30000" stroke-width="8.13875" stroke-miterlimit="16" stroke-linecap="round" stroke-linejoin="round"/>
</svg>
