<svg width="122" height="54" viewBox="0 0 122 54" fill="none" xmlns="http://www.w3.org/2000/svg">
<path d="M5 41.0446C6.35646 51.3688 21.805 53.4455 27.8337 35.5434C31.1436 25.7148 32.732 10.7478 26.9294 6.15347C21.8031 2.0946 16.6806 6.86029 16.6806 10.1117C16.6806 13.3631 18.4159 15.7059 23.0861 16.6122C29.6423 17.8844 45.543 9.67877 53.9832 4.87239C59.3337 1.82549 32.2045 48.3485 50.4414 48.3485C65.0308 48.3485 68.226 18.7499 68.226 4.49561V15.1212M68.1507 48.9573L68.226 15.1212M68.226 15.1212C69.8086 7.36558 85.0311 -2.28669 94.4509 11.7301C100.123 20.1702 93.622 39.9896 99.1232 45.9429C104.624 51.8963 117.36 48.3485 117.887 40.9975" stroke="#FDD3CF" stroke-width="8.13875" stroke-miterlimit="16" stroke-linecap="round" stroke-linejoin="round"/>
</svg>
