<svg width="445" height="194" viewBox="0 0 445 194" fill="none" xmlns="http://www.w3.org/2000/svg">
<path d="M15.1665 149.127C20.1427 187.001 76.8166 194.62 98.9332 128.945C111.076 92.8883 116.903 37.981 95.6158 21.1264C76.8096 6.23623 58.0175 23.7194 58.0175 35.6473C58.0175 47.5751 64.3836 56.17 81.5164 59.4947C105.568 64.1621 163.901 34.0592 194.864 16.4267C214.493 5.24898 114.968 175.921 181.871 175.921C235.393 175.921 247.115 67.3369 247.115 15.0444V54.025M246.838 178.155L247.115 54.025M247.115 54.025C252.92 25.5731 308.765 -9.83678 343.322 41.5844C364.131 72.5477 340.281 145.256 360.462 167.096C380.644 188.936 427.365 175.921 429.3 148.954" stroke="#FDD3CF" stroke-width="29.8574" stroke-miterlimit="16" stroke-linecap="round" stroke-linejoin="round"/>
</svg>
