<svg width="33" height="33" viewBox="0 0 33 33" fill="none" xmlns="http://www.w3.org/2000/svg">
<g id="mingcute:instagram-fill">
<g id="Group">
<path id="Vector" d="M22 4.125C23.8234 4.125 25.572 4.84933 26.8614 6.13864C28.1507 7.42795 28.875 9.17664 28.875 11V22C28.875 23.8234 28.1507 25.572 26.8614 26.8614C25.572 28.1507 23.8234 28.875 22 28.875H11C9.17664 28.875 7.42795 28.1507 6.13864 26.8614C4.84933 25.572 4.125 23.8234 4.125 22V11C4.125 9.17664 4.84933 7.42795 6.13864 6.13864C7.42795 4.84933 9.17664 4.125 11 4.125H22ZM16.5 11C15.0413 11 13.6424 11.5795 12.6109 12.6109C11.5795 13.6424 11 15.0413 11 16.5C11 17.9587 11.5795 19.3576 12.6109 20.3891C13.6424 21.4205 15.0413 22 16.5 22C17.9587 22 19.3576 21.4205 20.3891 20.3891C21.4205 19.3576 22 17.9587 22 16.5C22 15.0413 21.4205 13.6424 20.3891 12.6109C19.3576 11.5795 17.9587 11 16.5 11ZM16.5 13.75C17.2293 13.75 17.9288 14.0397 18.4445 14.5555C18.9603 15.0712 19.25 15.7707 19.25 16.5C19.25 17.2293 18.9603 17.9288 18.4445 18.4445C17.9288 18.9603 17.2293 19.25 16.5 19.25C15.7707 19.25 15.0712 18.9603 14.5555 18.4445C14.0397 17.9288 13.75 17.2293 13.75 16.5C13.75 15.7707 14.0397 15.0712 14.5555 14.5555C15.0712 14.0397 15.7707 13.75 16.5 13.75ZM22.6875 8.9375C22.3228 8.9375 21.9731 9.08237 21.7152 9.34023C21.4574 9.59809 21.3125 9.94783 21.3125 10.3125C21.3125 10.6772 21.4574 11.0269 21.7152 11.2848C21.9731 11.5426 22.3228 11.6875 22.6875 11.6875C23.0522 11.6875 23.4019 11.5426 23.6598 11.2848C23.9176 11.0269 24.0625 10.6772 24.0625 10.3125C24.0625 9.94783 23.9176 9.59809 23.6598 9.34023C23.4019 9.08237 23.0522 8.9375 22.6875 8.9375Z" fill="#D30000"/>
</g>
</g>
</svg>
