<svg width="33" height="33" viewBox="0 0 33 33" fill="none" xmlns="http://www.w3.org/2000/svg">
<g id="mingcute:dribbble-fill">
<g id="Group">
<path id="Vector" d="M18.9395 19.8536C19.9929 22.9752 20.7011 26.2028 21.0515 29.4786C19.5887 29.9904 18.0499 30.2512 16.5002 30.25C13.7739 30.2545 11.1083 29.4444 8.84559 27.9235C9.90008 25.9697 11.3371 24.2482 13.071 22.8615C14.8049 21.4748 16.8003 20.4514 18.9381 19.8523L18.9395 19.8536ZM29.6631 20.4903C28.6817 23.7166 26.5511 26.4709 23.675 28.2315C23.2888 25.2102 22.6166 22.2323 21.6675 19.338C24.3869 19.0571 27.1336 19.4529 29.6631 20.4903ZM16.6996 14.4169C17.157 15.35 17.5833 16.3002 17.9783 17.2673C13.2159 18.6624 9.17434 21.8393 6.69372 26.1374C5.29963 24.7087 4.23057 22.9958 3.55968 21.1158C2.8888 19.2358 2.63191 17.2331 2.80659 15.2446C7.40322 16.2181 12.2528 15.9349 16.6996 14.4169ZM27.1152 7.7605C29.4059 10.5582 30.5114 14.141 30.1952 17.743C27.1704 16.6048 23.909 16.2409 20.7077 16.6843C20.2655 15.5675 19.7816 14.4676 19.2571 13.387C22.2036 12.0166 24.8686 10.1084 27.1152 7.7605ZM9.99097 4.38625C12.0465 6.71634 13.8572 9.25139 15.3947 11.9515C11.4922 13.1944 7.33305 13.3982 3.32772 12.5428C4.38229 9.04948 6.7783 6.11652 9.99097 4.38625ZM16.5002 2.75C19.7837 2.75 22.7991 3.90088 25.1627 5.82175C23.1169 7.96942 20.6811 9.7081 17.9852 10.945C16.4678 8.22737 14.6903 5.66336 12.6777 3.289C13.9202 2.93048 15.207 2.74903 16.5002 2.75Z" fill="#D30000"/>
</g>
</g>
</svg>
